<svg xmlns="http://www.w3.org/2000/svg" viewBox="0 0 320 64" width="320" height="64" role="img" aria-label="A1 Paving">
  <title>A1 Paving</title>
  <defs>
    <linearGradient id="psc-asphalt-d" x1="0" y1="0" x2="1" y2="1">
      <stop offset="0" stop-color="#33333C"/>
      <stop offset="1" stop-color="#191C20"/>
    </linearGradient>
    <linearGradient id="psc-strip-d" x1="0" y1="1" x2="0" y2="0">
      <stop offset="0" stop-color="#43434D"/>
      <stop offset="1" stop-color="#26262F"/>
    </linearGradient>
    <clipPath id="psc-badge-d">
      <rect x="2.25" y="2.25" width="59.5" height="59.5" rx="13.5"/>
    </clipPath>
  </defs>

  <rect x="2.25" y="2.25" width="59.5" height="59.5" rx="13.5" fill="url(#psc-asphalt-d)"/>
  <g clip-path="url(#psc-badge-d)">
    <path d="M15 53 L27.5 15 H36.5 L49 53 Z" fill="url(#psc-strip-d)"/>
    <path d="M15 53 L27.5 15 H31 L24 53 Z" fill="#FFFFFF" opacity=".09"/>
    <g fill="#F0B429">
      <rect x="29.6" y="46.5" width="4.8" height="5" rx=".7"/>
      <rect x="30" y="37.5" width="4" height="4.1" rx=".6"/>
      <rect x="30.4" y="29.8" width="3.2" height="3.3" rx=".5"/>
      <rect x="30.7" y="23.4" width="2.6" height="2.6" rx=".4"/>
      <rect x="30.95" y="18.2" width="2.1" height="2" rx=".35"/>
    </g>
  </g>
  <rect x="2.25" y="2.25" width="59.5" height="59.5" rx="13.5" fill="none" stroke="#F0B429" stroke-width="3.5"/>

  <text x="76" y="34" font-family="Anton, 'Arial Narrow', Impact, sans-serif" font-size="25" fill="#FFFFFF" letter-spacing="0.4">A1 PAVING</text>
  <text x="77" y="50" font-family="Inter, -apple-system, 'Segoe UI', sans-serif" font-size="11" font-weight="700" fill="#F0B429" letter-spacing="2.6">ASPHALT PAVING</text>
</svg>
